<svg width="70" height="70" viewBox="0 0 70 70" fill="none" xmlns="http://www.w3.org/2000/svg">
<rect width="70" height="70" rx="10" fill="#EFF8FF"/>
<path d="M49 32C49 42.8889 35 52.2222 35 52.2222C35 52.2222 21 42.8889 21 32C21 28.287 22.475 24.726 25.1005 22.1005C27.726 19.475 31.287 18 35 18C38.713 18 42.274 19.475 44.8995 22.1005C47.525 24.726 49 28.287 49 32Z" stroke="#1377C0" stroke-width="3" stroke-linecap="round" stroke-linejoin="round"/>
<path d="M35.0026 36.6667C37.5799 36.6667 39.6693 34.5773 39.6693 32C39.6693 29.4227 37.5799 27.3333 35.0026 27.3333C32.4253 27.3333 30.3359 29.4227 30.3359 32C30.3359 34.5773 32.4253 36.6667 35.0026 36.6667Z" stroke="#1377C0" stroke-width="3" stroke-linecap="round" stroke-linejoin="round"/>
</svg>
