<svg width="26" height="26" viewBox="0 0 26 26" fill="none" xmlns="http://www.w3.org/2000/svg">
<path d="M13.0531 0C5.98384 0 0.25293 5.73091 0.25293 12.8002C0.25293 18.803 4.38586 23.8401 9.96112 25.2236V16.712H7.32172V12.8002H9.96112V11.1147C9.96112 6.758 11.9329 4.73864 16.2102 4.73864C17.0212 4.73864 18.4205 4.89787 18.993 5.05659V8.60225C18.6909 8.57051 18.1661 8.55464 17.5143 8.55464C15.4155 8.55464 14.6045 9.34978 14.6045 11.4168V12.8002H18.7856L18.0672 16.712H14.6045V25.5067C20.9427 24.7413 25.8539 19.3447 25.8539 12.8002C25.8533 5.73091 20.1224 0 13.0531 0Z" fill="white"/>
</svg>
