<svg width="26" height="26" viewBox="0 0 26 26" fill="none" xmlns="http://www.w3.org/2000/svg">
<path d="M12.8002 2.30504C16.2203 2.30504 16.6253 2.32004 17.9703 2.38004C19.2203 2.43504 19.8953 2.64504 20.3453 2.82005C20.9403 3.05005 21.3703 3.33005 21.8154 3.77506C22.2654 4.22507 22.5404 4.65008 22.7704 5.24509C22.9454 5.69509 23.1554 6.3751 23.2104 7.62013C23.2704 8.97015 23.2854 9.37515 23.2854 12.7902C23.2854 16.2103 23.2704 16.6153 23.2104 17.9603C23.1554 19.2103 22.9454 19.8853 22.7704 20.3353C22.5404 20.9303 22.2604 21.3604 21.8154 21.8054C21.3654 22.2554 20.9403 22.5304 20.3453 22.7604C19.8953 22.9354 19.2153 23.1454 17.9703 23.2004C16.6203 23.2604 16.2153 23.2754 12.8002 23.2754C9.38015 23.2754 8.97515 23.2604 7.63013 23.2004C6.38011 23.1454 5.70509 22.9354 5.25509 22.7604C4.66008 22.5304 4.23007 22.2504 3.78506 21.8054C3.33505 21.3554 3.06005 20.9303 2.83005 20.3353C2.65504 19.8853 2.44504 19.2053 2.39004 17.9603C2.33004 16.6103 2.31504 16.2053 2.31504 12.7902C2.31504 9.37015 2.33004 8.96515 2.39004 7.62013C2.44504 6.3701 2.65504 5.69509 2.83005 5.24509C3.06005 4.65008 3.34005 4.22007 3.78506 3.77506C4.23507 3.32505 4.66008 3.05005 5.25509 2.82005C5.70509 2.64504 6.38511 2.43504 7.63013 2.38004C8.97515 2.32004 9.38015 2.30504 12.8002 2.30504ZM12.8002 0C9.32515 0 8.89015 0.0150002 7.52512 0.0750012C6.1651 0.135002 5.23009 0.355006 4.42007 0.670011C3.57506 1.00002 2.86005 1.43502 2.15004 2.15004C1.43502 2.86005 1.00002 3.57506 0.670011 4.41507C0.355006 5.23009 0.135002 6.1601 0.0750012 7.52012C0.0150002 8.89015 0 9.32515 0 12.8002C0 16.2753 0.0150002 16.7103 0.0750012 18.0753C0.135002 19.4353 0.355006 20.3703 0.670011 21.1803C1.00002 22.0254 1.43502 22.7404 2.15004 23.4504C2.86005 24.1604 3.57506 24.6004 4.41507 24.9254C5.23009 25.2404 6.1601 25.4604 7.52012 25.5204C8.88515 25.5804 9.32015 25.5954 12.7952 25.5954C16.2703 25.5954 16.7053 25.5804 18.0703 25.5204C19.4303 25.4604 20.3653 25.2404 21.1753 24.9254C22.0154 24.6004 22.7304 24.1604 23.4404 23.4504C24.1504 22.7404 24.5904 22.0254 24.9154 21.1854C25.2304 20.3703 25.4504 19.4403 25.5104 18.0803C25.5704 16.7153 25.5854 16.2803 25.5854 12.8052C25.5854 9.33015 25.5704 8.89515 25.5104 7.53012C25.4504 6.1701 25.2304 5.23509 24.9154 4.42507C24.6004 3.57506 24.1654 2.86005 23.4504 2.15004C22.7404 1.44002 22.0254 1.00002 21.1853 0.675011C20.3703 0.360006 19.4403 0.140002 18.0803 0.0800013C16.7103 0.0150003 16.2753 0 12.8002 0Z" fill="white"/>
<path d="M12.7997 6.2251C9.16966 6.2251 6.22461 9.17015 6.22461 12.8002C6.22461 16.4303 9.16966 19.3753 12.7997 19.3753C16.4298 19.3753 19.3748 16.4303 19.3748 12.8002C19.3748 9.17015 16.4298 6.2251 12.7997 6.2251ZM12.7997 17.0653C10.4447 17.0653 8.53465 15.1552 8.53465 12.8002C8.53465 10.4452 10.4447 8.53514 12.7997 8.53514C15.1548 8.53514 17.0648 10.4452 17.0648 12.8002C17.0648 15.1552 15.1548 17.0653 12.7997 17.0653Z" fill="white"/>
<path d="M21.1706 5.96508C21.1706 6.8151 20.4806 7.50011 19.6356 7.50011C18.7856 7.50011 18.1006 6.8101 18.1006 5.96508C18.1006 5.11507 18.7906 4.43005 19.6356 4.43005C20.4806 4.43005 21.1706 5.12007 21.1706 5.96508Z" fill="white"/>
</svg>
