<svg width="70" height="70" viewBox="0 0 70 70" fill="none" xmlns="http://www.w3.org/2000/svg">
<rect width="70" height="70" rx="10" fill="#EFF8FF"/>
<path d="M38.3432 26.3517C39.6525 26.6066 40.8558 27.2457 41.7991 28.1872C42.7423 29.1286 43.3827 30.3296 43.6381 31.6364M38.3432 21C41.0634 21.3016 43.6 22.5174 45.5365 24.4478C47.4731 26.3782 48.6944 28.9084 49 31.623M47.6595 42.2996V46.3133C47.661 46.6859 47.5846 47.0547 47.435 47.3961C47.2854 47.7376 47.0661 48.044 46.791 48.2959C46.5159 48.5478 46.1911 48.7396 45.8375 48.859C45.4838 48.9783 45.1091 49.0227 44.7373 48.9891C40.6124 48.5418 36.6502 47.135 33.169 44.8817C29.9302 42.8276 27.1842 40.0869 25.1261 36.8543C22.8607 33.3639 21.4509 29.39 21.0109 25.2546C20.9774 24.8846 21.0214 24.5117 21.1402 24.1596C21.259 23.8076 21.45 23.4841 21.7009 23.2097C21.9518 22.9354 22.2573 22.7162 22.5977 22.5661C22.9382 22.416 23.3062 22.3383 23.6784 22.3379H27.6999C28.3504 22.3315 28.9811 22.5614 29.4743 22.9848C29.9676 23.4082 30.2898 23.9962 30.3808 24.6391C30.5505 25.9236 30.8653 27.1848 31.3191 28.3987C31.4995 28.8775 31.5385 29.398 31.4316 29.8983C31.3247 30.3986 31.0763 30.8579 30.7159 31.2217L29.0135 32.9208C30.9218 36.2703 33.7004 39.0437 37.0564 40.9483L38.7588 39.2491C39.1232 38.8894 39.5834 38.6415 40.0847 38.5348C40.586 38.4281 41.1074 38.4671 41.5872 38.6471C42.8033 39.1 44.067 39.4142 45.3539 39.5836C46.0051 39.6753 46.5997 40.0027 47.0249 40.5034C47.45 41.0042 47.6758 41.6434 47.6595 42.2996Z" stroke="#1377C0" stroke-width="3" stroke-linecap="round" stroke-linejoin="round"/>
</svg>
